<svg xmlns="http://www.w3.org/2000/svg" width="512" height="512" fill="none"><circle cx="256" cy="256" r="256" fill="#000"/><path fill="#FFE300" fill-rule="evenodd" d="M44.234 220.601v29.532h86.386c10.041 0 22.869-9.284 22.869-24.644 0-6.176 2.363-10.206-4.897-18.377l-11.05-13.092c-6.331-5.906.757-5.906 6.075-5.906h36.472v62.019h28.926v-62.019H248v-26.561H121.76c-15.359 0-22.869 14.748-22.446 22.426.425 7.678 1.837 17.339 14.6 28.944 11.643 10.582-5.764 7.678-7.513 7.678H44.235Zm267.725-59.048h-46.663l-26.159 88.582h29.113l4.722-12.403h30.714l4.559 12.403h28.516l-24.802-88.582Zm-32.488 54.913 10.042-32.487 9.452 32.487h-19.494Zm149.438 4.135c-11.222 0-11.222-4.135-11.222-4.135 9.616 0 18.141-14.009 18.141-28.352 0-14.344-14.007-26.561-25.233-26.561h-62.779v88.582h31.899v-29.531s13.583 15.947 20.67 22.444c7.091 6.497 7.679 7.087 17.299 7.087h50.074v-29.531c.005-.003-27.627-.003-38.849-.003Zm-28.944-20.672H379.72v-15.95h20.245c9.282 0 10.888 15.95 0 15.95Zm-355.73 61.427H76.87l8.268 29.536 7.678-29.536h34.26l8.86 29.536 8.862-29.536h28.351l-25.991 88.603H121.17l-11.388-41.94-12.83 41.94h-26.58l-26.138-88.603Zm195.89.511h-46.663l-26.156 88.58h29.109l4.725-12.401h30.716l4.559 12.401h28.519l-24.809-88.58Zm-32.485 54.911 10.041-32.488 9.45 32.488H207.64Zm221.857-28.839c-5.311 0-11.103.621-4.769 6.525l11.051 13.095c7.259 8.171 7.142 11.577 7.142 17.758 0 15.357-15.193 24.642-25.234 24.642l-69.794.469c-9.616 0-10.205-.588-17.294-7.085-7.086-6.497-20.673-22.447-20.673-22.447v29.532h-31.895v-88.58h62.779c11.222 0 25.234 12.219 25.234 26.56 0 14.346-8.526 28.354-18.147 28.354 0 0 4.231 4.253 11.318 4.253 7.091 0 34.382.028 34.382.028 1.746 0 19.15 2.904 7.51-7.678-12.763-11.605-14.176-21.261-14.601-28.94-.425-7.678 6.215-23.067 21.567-23.067h59.695v26.584l-38.271-.003Zm-99.324 12.282h-20.25v-15.95h20.25c9.285 0 10.889 15.95 0 15.95Z" clip-rule="evenodd"/></svg>